<?xml version="1.0" encoding="utf-8"?>
<!-- Generator: Adobe Illustrator 18.1.1, SVG Export Plug-In . SVG Version: 6.00 Build 0)  -->
<svg version="1.1" xmlns="http://www.w3.org/2000/svg" xmlns:xlink="http://www.w3.org/1999/xlink" x="0px" y="0px" width="500px"
	 height="500px" viewBox="0 0 500 500" style="enable-background:new 0 0 500 500;" xml:space="preserve">
<style type="text/css">
	.st0{fill:#231F20;}
</style>
<g id="Layer_1">
</g>
<g id="Layer_2">
	<g>
		<polygon class="st0" points="51,38.8 51,465.3 308.2,465.3 308.2,374.5 162.8,374.5 162.8,268.9 162.8,38.8 		"/>
		<rect x="183" y="38.8" class="st0" width="125.2" height="90.8"/>
		<path class="st0" d="M182.9,200.7"/>
		<path class="st0" d="M182.9,202.7c21.5,0,133.7,0,145.4,0c43.8,0,130.7,34.7,130.7,131.4c0,70.2-55.7,130.7-130.7,130.7
			c0-33.3,0-70,0-90.2c29,0,42.7-23.8,42.7-42.8c0-25-20.3-42.7-42.6-42.7l-145.5,0C182.8,289,182.9,227.2,182.9,202.7z"/>
	</g>
	<g>
	</g>
	<g>
	</g>
	<g>
	</g>
	<g>
	</g>
	<g>
	</g>
	<g>
	</g>
</g>
</svg>
